#!OML:ASF H:\Punching\Project 1\Capture day 1\Session 1\female.ASF
:FULLY-SPECIFIED
:DEGREES
643
root -1.88499 14.1179 6.09301 15.4174 3.79199 -0.521824
lowerback 4.32577 -2.97885 -1.16659
upperback -2.63837 -4.01296 1.04917
thorax -4.99881 -1.93263 2.07897
lowerneck -6.7891 5.14168 16.3245
upperneck 28.2547 5.20111 -3.18821
head 10.8346 3.71027 -3.32075
rclavicle -1.44119e-014 -1.39149e-015
rhumerus 11.4387 26.1915 -80.5465
rradius 135.13
rwrist -43.8782
rhand -14.8181 -6.49474
rfingers 7.12502
rthumb 11.3401 -36.1681
lclavicle -1.44119e-014 -1.39149e-015
lhumerus 17.706 -17.9075 77.6675
lradius 117.562
lwrist 38.3598
lhand -11.9982 36.8055
lfingers 7.12502
lthumb 14.0587 66.31
rfemur -55.0781 5.83889 13.4929
rtibia 65.0191
rfoot -22.7789 -5.92015
rtoes -4.63628
lfemur -7.84936 -2.91454 -0.49207
ltibia 42.6576
lfoot -24.532 -2.3399
ltoes -39.6892
644
root -1.89504 14.1461 6.0935 15.5801 5.83405 -0.0646111
lowerback 4.35344 -2.71677 -0.783052
upperback -2.70666 -3.63625 1.06347
thorax -5.12384 -1.75641 1.85401
lowerneck -7.21379 4.36479 15.4087
upperneck 28.2577 4.08328 -2.72668
head 10.7453 3.16178 -3.13341
rclavicle -3.66509e-014 -3.37934e-015
rhumerus 11.4414 25.4392 -79.9097
rradius 135.433
rwrist -44.3024
rhand -14.7978 -6.60987
rfingers 7.12502
rthumb 11.3598 -36.2822
lclavicle -3.66509e-014 -3.37934e-015
lhumerus 15.9546 -18.279 78.1764
lradius 121.065
lwrist 40.8597
lhand -11.9434 36.8177
lfingers 7.12502
lthumb 14.1116 66.3185
rfemur -54.5951 4.94104 13.0194
rtibia 65.0183
rfoot -22.9997 -6.92319
rtoes -4.91799
lfemur -8.70874 -3.79773 -0.377549
ltibia 42.1102
lfoot -24.3932 -2.57355
ltoes -39.5379
645
root -1.90425 14.1734 6.09519 15.736 7.89606 0.316539
lowerback 4.40558 -2.42891 -0.308695
upperback -2.79969 -3.21752 1.08804
thorax -5.28977 -1.56266 1.58585
lowerneck -7.53603 3.53876 14.4611
upperneck 28.202 2.91271 -2.205
head 10.6264 2.59149 -2.92264
rclavicle -1.31446e-014 5.1684e-015
rhumerus 11.3339 24.5688 -79.2357
rradius 135.785
rwrist -44.7595
rhand -14.7786 -6.68219
rfingers 7.12502
rthumb 11.3783 -36.3535
lclavicle -1.31446e-014 5.1684e-015
lhumerus 14.324 -18.7676 78.7065
lradius 124.199
lwrist 42.9936
lhand -11.9889 36.8284
lfingers 7.12502
lthumb 14.0677 66.3322
rfemur -54.0459 3.9944 12.6668
rtibia 64.9741
rfoot -23.2122 -7.84074
rtoes -5.2352
lfemur -9.55924 -4.64782 -0.168622
ltibia 41.5798
lfoot -24.2742 -2.81796
ltoes -39.3994
646
root -1.9125 14.1992 6.09735 15.881 9.95713 0.62367
lowerback 4.48113 -2.12039 0.243234
upperback -2.91046 -2.76347 1.12293
thorax -5.48549 -1.35507 1.28111
lowerneck -7.74601 2.67682 13.484
upperneck 28.0611 1.70815 -1.62232
head 10.4714 2.00648 -2.68531
rclavicle -2.5842e-015 -4.77083e-015
rhumerus 11.1355 23.5935 -78.5373
rradius 136.173
rwrist -45.2304
rhand -14.7453 -6.72518
rfingers 7.12502
rthumb 11.4104 -36.3947
lclavicle -2.5842e-015 -4.77083e-015
lhumerus 12.8312 -19.3902 79.2293
lradius 126.982
lwrist 44.6797
lhand -12.1103 36.8339
lfingers 7.12502
lthumb 13.9507 66.3459
rfemur -53.4499 3.01137 12.4263
rtibia 64.8913
rfoot -23.4147 -8.67202
rtoes -5.5864
lfemur -10.4085 -5.463 0.125581
ltibia 41.0836
lfoot -24.1845 -3.07218
ltoes -39.2933
647
root -1.91949 14.2233 6.09955 15.9983 11.995 0.855533
lowerback 4.58706 -1.79846 0.861295
upperback -3.04179 -2.283 1.17368
thorax -5.71507 -1.13818 0.952177
lowerneck -7.80942 1.79506 12.5053
upperneck 27.8339 0.50192 -1.01901
head 10.2792 1.41904 -2.4366
rclavicle 1.71949e-014 -8.74653e-015
rhumerus 10.8498 22.5399 -77.8274
rradius 136.572
rwrist -45.7164
rhand -14.7436 -6.78431
rfingers 7.12502
rthumb 11.412 -36.4537
lclavicle 1.71949e-014 -8.74653e-015
lhumerus 11.4463 -20.1676 79.735
lradius 129.436
lwrist 45.8227
lhand -12.261 36.7967
lfingers 7.12502
lthumb 13.8055 66.3186
rfemur -52.8106 2.01188 12.2913
rtibia 64.7791
rfoot -23.6126 -9.42248
rtoes -5.95622
lfemur -11.2494 -6.2483 0.496027
ltibia 40.6427
lfoot -24.116 -3.34433
ltoes -39.1605
648
root -1.92509 14.245 6.10123 16.0865 13.9893 1.02561
lowerback 4.7109 -1.46854 1.52004
upperback -3.16872 -1.78433 1.24225
thorax -5.94262 -0.91569 0.61423
lowerneck -7.80134 0.91809 11.5276
upperneck 27.5376 -0.681536 -0.411951
head 10.0734 0.83856 -2.17995
rclavicle -9.93923e-016 6.75868e-015
rhumerus 10.5488 21.4187 -77.0929
rradius 136.955
rwrist -46.205
rhand -14.7724 -6.85528
rfingers 7.12502
rthumb 11.3842 -36.5263
lclavicle -9.93923e-016 6.75868e-015
lhumerus 10.2159 -21.0994 80.1966
lradius 131.602
lwrist 46.4124
lhand -12.3819 36.7168
lfingers 7.12502
lthumb 13.6889 66.2466
rfemur -52.1482 1.00896 12.2397
rtibia 64.6526
rfoot -23.8074 -10.1049
rtoes -6.33484
lfemur -12.0903 -7.00794 0.920807
ltibia 40.2779
lfoot -24.0596 -3.63633
ltoes -38.992
649
root -1.92934 14.2636 6.10179 16.1548 15.9022 1.15872
lowerback 4.84237 -1.13242 2.16901
upperback -3.28043 -1.27315 1.3355
thorax -6.14851 -0.688134 0.302662
lowerneck -7.79223 0.0667976 10.5536
upperneck 27.2207 -1.81812 0.166657
head 9.88558 0.27497 -1.92607
rclavicle -2.77305e-014 1.59028e-014
rhumerus 10.2952 20.2591 -76.3206
rradius 137.299
rwrist -46.6857
rhand -14.8052 -6.93182
rfingers 7.12502
rthumb 11.3526 -36.6045
lclavicle -2.77305e-014 1.59028e-014
lhumerus 9.14976 -22.1757 80.6175
lradius 133.518
lwrist 46.4394
lhand -12.4137 36.5706
lfingers 7.12502
lthumb 13.6583 66.1024
rfemur -51.499 0.0305338 12.2336
rtibia 64.5313
rfoot -23.9908 -10.735
rtoes -6.70972
lfemur -12.934 -7.73757 1.36191
ltibia 40.0029
lfoot -24.0095 -3.92571
ltoes -38.8199
